<svg xmlns="http://www.w3.org/2000/svg" xmlns:xlink="http://www.w3.org/1999/xlink" width="100" zoomAndPan="magnify" viewBox="0 0 75 74.999997" height="100" preserveAspectRatio="xMidYMid meet" version="1.0"><path fill="#ed6b44" d="M 74.304688 36.804688 L 70.496094 36.804688 C 70.074219 19.058594 55.90625 4.847656 38.1875 4.492188 L 38.1875 0.6875 C 38.1875 0.308594 37.878906 0 37.5 0 C 37.121094 0 36.8125 0.308594 36.8125 0.6875 L 36.8125 4.492188 C 19.101562 4.855469 4.855469 19.101562 4.492188 36.8125 L 0.6875 36.8125 C 0.308594 36.8125 0 37.121094 0 37.5 C 0 37.878906 0.308594 38.1875 0.6875 38.1875 L 4.492188 38.1875 C 4.855469 55.914062 19.148438 70.152344 36.8125 70.507812 L 36.8125 74.3125 C 36.8125 74.691406 37.121094 75 37.5 75 C 37.878906 75 38.1875 74.691406 38.1875 74.3125 L 38.1875 70.507812 C 55.871094 70.144531 70.207031 55.824219 70.507812 38.1875 L 74.3125 38.1875 C 74.691406 38.1875 75 37.878906 75 37.5 C 74.992188 37.109375 74.683594 36.804688 74.304688 36.804688 Z M 63.273438 36.804688 L 56.296875 36.804688 C 55.941406 26.949219 47.960938 18.941406 38.179688 18.667969 L 38.179688 11.699219 C 51.882812 12.070312 62.867188 23.070312 63.273438 36.804688 Z M 36.804688 32.5625 C 34.605469 32.863281 32.863281 34.605469 32.554688 36.8125 L 26.074219 36.8125 C 26.507812 31.0625 31.019531 26.605469 36.8125 26.21875 L 36.8125 32.5625 Z M 32.554688 38.179688 C 32.851562 40.382812 34.589844 42.109375 36.804688 42.417969 L 36.804688 49.0625 C 30.917969 48.664062 26.28125 44 26.046875 38.179688 Z M 38.1875 42.425781 C 40.402344 42.128906 42.109375 40.410156 42.417969 38.1875 L 48.964844 38.1875 C 48.691406 44 43.945312 48.800781 38.195312 49.089844 L 38.195312 42.425781 Z M 42.417969 36.804688 C 42.128906 34.589844 40.402344 32.863281 38.1875 32.5625 L 38.1875 26.199219 C 43.847656 26.480469 48.511719 31.117188 48.9375 36.8125 L 42.417969 36.8125 Z M 36.804688 11.699219 L 36.804688 18.6875 C 26.867188 19.121094 19.011719 26.957031 18.667969 36.8125 L 11.707031 36.8125 C 11.988281 23.199219 23.160156 12.050781 36.804688 11.699219 Z M 11.714844 38.179688 L 18.675781 38.179688 C 19.039062 48.042969 27.03125 56.050781 36.804688 56.3125 L 36.804688 63.292969 C 23.082031 62.902344 12.152344 51.945312 11.714844 38.179688 Z M 38.1875 63.292969 L 38.1875 56.296875 C 48.160156 55.859375 55.953125 48.078125 56.304688 38.179688 L 63.285156 38.179688 C 62.96875 51.828125 51.828125 62.957031 38.1875 63.292969 Z M 38.1875 63.292969 " fill-opacity="1" fill-rule="nonzero"/></svg>